# xmcd
#
# Track frame offsets:
#  150
#  19165
#  35652
#  54442
#  72792
#  86225
#  106110
#  122187
#  136877
#  158522
#  178932
#  193040
#  196640
#  218002
#  249575
#  257245
#  264625
#  284695
#  306215
#
# Disc length: 4452 seconds
#
# Revision: 0
# Processed by: cddbd v1.5.2PL0 Copyright (c) Steve Scherf et al.
# Submitted via: Collectorz.com_Music_Collector 6.11
#
DISCID=17116213
DTITLE=Jimi Hendrix - Greatest Hits - Live
DYEAR=1994
DGENRE=Blues
TTITLE0=Hey Joe
TTITLE1=The Wind Cries Mary
TTITLE2=Purple Haze
TTITLE3=The Burning Of The Midnight Lamp
TTITLE4=Fire
TTITLE5=I Don't Live Today
TTITLE6=Foxy Lady
TTITLE7=Little Wing
TTITLE8=Manic Depression
TTITLE9=All Along The Watchtower
TTITLE10=Stone Free
TTITLE11=Sgt. Pepper's Lonely Hearts Club Band
TTITLE12=Are You Experienced?
TTITLE13=Like A Rolling Stone
TTITLE14=Sgt. Pepper's Lonely Hearts Club Band (Reprise)
TTITLE15=The Star Spaggled Banner
TTITLE16=Wild Thing
TTITLE17=Freedom
TTITLE18=Voodoo Chile (Silent Return)
EXTD=
EXTT0=
EXTT1=
EXTT2=
EXTT3=
EXTT4=
EXTT5=
EXTT6=
EXTT7=
EXTT8=
EXTT9=
EXTT10=
EXTT11=
EXTT12=
EXTT13=
EXTT14=
EXTT15=
EXTT16=
EXTT17=
EXTT18=
PLAYORDER=
